<?xml version="1.0" encoding="UTF-8"?>
<svg id="Layer_1" data-name="Layer 1" xmlns="http://www.w3.org/2000/svg" viewBox="0 0 500.02 190.46">
  <defs>
    <style>
      .cls-1 {
        fill: #620007;
      }

      .cls-1, .cls-2, .cls-3 {
        stroke: #fff;
        stroke-miterlimit: 10;
      }

      .cls-2 {
        fill: silver;
      }

      .cls-3 {
        fill: #890004;
      }
    </style>
  </defs>
  <line class="cls-1" x1="499.52" x2="499.52" y2=".72"/>
  <path class="cls-2" d="M91.22,80.57l-3.33,58.62c-1.99,15.69-7.14,28.63-24.95,35.24L.59,189.91c-1.07-.86,7.59-22.14,9.52-23.77,3.02-2.57,25.88-6.46,31.88-8.39,20.43-6.59,15.03-33.45,16.81-48.4l-29.1,3.6.91-17.92,60.62-14.45Z"/>
  <path class="cls-2" d="M279.16,2.88c2.7,7.79-.79,18.6.83,26.26.13.6.66,1.8,1.25,1.8h25.78c3.04,0,3.04,18.7,0,18.7h-27.03v61.51c0,.08-1.16,1.08-1.25,1.08h-17.46c-.09,0-1.25-1-1.25-1.08v-61.51h-27.03c-.09,0-1.25-1-1.25-1.08v-16.55c0-.08,1.16-1.08,1.25-1.08h27.03c.83-7.82-1.11-17.25-.04-24.86.22-1.55.78-2.04,1.7-3.2h17.46Z"/>
  <path class="cls-2" d="M94.56,112.22l2.04-32.4c12.4-3.66,25.18-7.54,38.09-9.2,6.07,2.21,7.54,7.45,4.65,12.36-.46.78-2.34,2.04-2.34,2.26,0,.31,3.08,2.08,3.18,4.28.3,6.85-4.6,10.83-11.31,13.17-10.69,3.73-23.42,5.87-34.31,9.52Z"/>
  <path class="cls-2" d="M418.03,96.4l8.31,14.38c-.58.4-12.99-3.24-14.12-3.97-3.36-2.17-8.55-12.92-11.25-14.01l-8.45,8.54c-1.54.45-13.59-2.39-13.56-3.15l22.94-25.39c1.53-.26,26.59,6.61,29.86,7.75,6.58,2.3,10.34,3.39,8.02,10.56-2.77,8.56-13.86,7.18-21.75,5.28Z"/>
  <path class="cls-2" d="M176.05,81.3l14.97,10.06c-4.89-.43-9.6,2.03-14.49,1.41-3.36-.43-16.23-8.42-17.93-7.16-1,2.1-1.04,9.61-2.03,10.84-.57.7-11.73,2.37-13.77,2.83l5.88-32.31c10.73-.8,24.22-5.41,34.67-5.61,3.38-.07,6.32.9,7.85,3.61,5.34,9.45-5.58,15.21-15.14,16.34Z"/>
  <path class="cls-2" d="M496.19,103.6c1.15,1.06-.29,1.24-1.06,1.6-1.35.64-8.8,2.76-10.11,2.69-2.43-.14-13.69-5.57-17.13-6.79-1.79-.63-9.81-4.15-9.07-.11.61,3.3,18.08,4.3,19.73,11.77,1.69,7.63-7.34,13.24-15.66,11.35-5.32-1.21-14.98-5.87-20.79-7.91-4.34-1.52-8.75-2.95-13.28-3.99,2.03-1.75,7.58-5.09,10.31-5,4.26.14,23.48,9.57,25.44,7.88.1-1.27.24-2.19-.82-3.24-2.28-2.27-13.03-3.48-16.65-7.18-8.31-8.51,4.1-17.11,14.16-14.4l34.91,13.33Z"/>
  <path class="cls-2" d="M229.95,57.01c14.34.08,22.18,5.94,15.52,18.53-6.27,11.86-24.81,14.25-38.25,12.95-10.8-1.05-13.39-9.94-9.72-17.76,5.39-11.48,19.55-13.79,32.44-13.72Z"/>
  <path class="cls-2" d="M309.1,74.09c2.77-.27,4.3-3.16,7.12-3.58,3.04-.45,8.72,1.69,11,.55,1.05-.53,6.38-10.57,7.36-10.69,2.18.94,13.22.99,13.6,2.59l-19.7,27.57-12.73-1.34c.46-1.85,7.15-9.69,5.82-10.78l-15.24-.75c-1.02.21-4.99,9.61-5.68,9.98-2.3,1.24-10.84-1.38-14-.61,2.91-3.9,13.95-27.71,16.62-29.15,1.13-.61,13.9.42,14.15,1.47.33,1.4-9.68,13.42-8.31,14.73Z"/>
  <path class="cls-2" d="M396.4,71.23c-1.55,2.04-7.88,5.57-10.44,5.72-4.04.24-21.33-5.29-23.51-4.17-.42.22-3.51,5.44-4.31,6.35,2.92.39,4.35-2.08,7.06-2.21,4.31-.21,10.93,2.45,15.39,2.95.59.65-10.25,5.45-11.34,5.54-2.78.24-11.78-3-13.95-2.55-.69.14-1.96,1.85-2.14,2.41-.51,1.63,1.01.89,2.03,1.08,3.33.62,23.62,3.59,24.57,4.3,1.38,1.04-.66,1.34-1.06,1.64-2.58,1.95-5.79,3.12-8.82,4.44l-35.86-5.37,19.66-28.11,42.71,7.98Z"/>
  <path class="cls-2" d="M427.17,149.63c.36,2.01-.49,2.95-2.87,2.91H106.57c-2.38.04-3.23-.91-2.87-2.91h323.47Z"/>
  <path class="cls-2" d="M368.88,120.22l2.59,12.87c2.99-1.55,4.48-11.48,6.63-12.6,2.01-1.05,7.44.03,9.99-.34l-10.07,25.09-13.27-.23-3.69-13.36c-1.2,1.68-4.82,13.19-5.52,13.58-1.26.7-8.52-.3-10.69.1l10.06-25.1h13.97Z"/>
  <path class="cls-2" d="M244.98,120.22l2.59,12.87c2.99-1.55,4.48-11.48,6.63-12.6,2.01-1.05,7.44.03,9.99-.34l-10.07,25.09-13.27-.23-3.69-13.36c-1.2,1.68-4.82,13.19-5.52,13.58-1.26.7-8.52-.3-10.69.1l10.37-24.48c1.77-1.56,10.72-.37,13.66-.62Z"/>
  <path class="cls-2" d="M167.73,135.25c-1.53,1.17,10.67,8.89,9.14,10.06-3.61-.28-8,.66-11.42-.54-3.17-1.11-7.63-7.68-10.6-8.11-1.65-.24-1.06.29-1.45.94-.91,1.54-2.04,6.78-3.1,7.39-1.76,1.02-7.61-.04-10.01.33l10.5-25.08c7.73.48,17.41-.98,24.88-.13,2.86.32,4.87,2.31,5.32,4.76,1.32,7.25-5.77,10.57-13.26,10.39Z"/>
  <path class="cls-2" d="M300.78,120.14c.65.41-5.75,6.47-6.24,6.47h-18.29c-1.43,0-1.43,2.88,0,2.88h12.47c2.62,0,5.58,5.27,5.47,7.54-.13,2.6-4.04,8.29-7.13,8.29h-28.69c-.3-1.04,4.93-6.47,5.41-6.47h19.54c.17,0,.17-2.88,0-2.88h-12.06c-.51,0-4.4-2.21-4.97-2.89-3.27-3.86.65-12.94,4.97-12.94h29.52Z"/>
  <path class="cls-2" d="M178.54,145.32l6.32-7.84c2.52-2.84,13.36-15.52,15.67-16.66,1.8-.88,11.43-1.19,12.19-.25,1.01,1.24,5.92,23.85,4.9,24.75-2.14-.32-7.74.62-9.21-.31s.04-4.29-2.42-4.73c.27,1.12-4.21,5.03-4.59,5.03h-22.87Z"/>
  <path class="cls-2" d="M351.5,120.14c.63.46-4.04,5.34-4.66,5.68-2.68,1.46-6.82.05-8.23,1.51-.46.47-5.09,11.11-4.57,11.51l9.97.36c-.91.95-5.47,6.12-6.23,6.12h-27.03c.22-1.67,3.49-5.51,5.01-6.1,2.32-.9,6.56.29,7.55-.82,2-2.24,3.1-8.9,4.9-11.78l-9.98-.37c.01-.38,4.97-6.11,5.41-6.11h27.86Z"/>
  <path class="cls-2" d="M423.85,120.14c-1.42,1.41-5.51,5.88-7.24,6.33-6.27,1.61-16.7-3.19-18.99,4.45-.78,2.6,1.96,7.93,4.2,7.93h13.72c-3.59,5.78-6.12,6.99-13.62,6.38-10.74-.87-17.16-5.9-14.26-15.76.77-2.62,6.93-9.33,10-9.33h26.19Z"/>
  <path class="cls-2" d="M146.94,120.14c-1.77,1.73-3.53,5.02-6.04,5.93s-6.3.17-7.16.64c-.94.52-6.25,15.93-7.5,18.18l-10.9.42c-.81-.63,7.05-15.16,7.49-17.62.26-1.46-.15-.94-1.24-1.08-2.42-.3-5.4.22-7.91,0-1.16-.91,4.93-6.47,5.4-6.47h27.86Z"/>
  <path class="cls-2" d="M179.37,166.18c-1.3-6.14,10.23-10.5,11.8-1.89,1.08-1.39,2.41-1.96,3.99-1.71.25-.26.67-.49.83-.72.13-1.33,7.31-1.39,7.76-.95,1.27,1.26-2.54,9.96-4.27,11.62.21,1.06-.4,1.58-1.82,1.56-1.37-.09-2.78.07-4.16,0l.41-5.04-6.63,5.04c-1.47-.28-1.69-5.13-2.1-6.47-2.3.88-1.59,5.18-3.28,6.14-.75.43-4.62.57-5.02.31-.23-.15.16-1.1,0-1.42-.9-1.53-.35-2.97,1.66-4.32.28-.75.49-1.41.83-2.16Z"/>
  <path class="cls-2" d="M355.66,161.14c1.51-1.63,5.95-.67,5.5,2.08l1.63.5c.3-3.27,6.1-5.04,7-1.15.03.24-.04.48,0,.72l.88.84c1.12-4.74,10.96-5.18,7.44-.84.73.2.72.44,0,.72-3.85-.27-7.65,12.8-12.53,9.76-1.96-9.77-1.94-2.51-5.29-.37-1.85,1.18-4.14,1.19-4.63-1.13-.59-2.78,0-7.99,0-11.15Z"/>
  <path class="cls-2" d="M265.02,171.21c.36-1.71,2.92-9.09,4.14-9.72,1.13-.59,5.74-.65,6.72-.04,1.27.79.96,6.15,2.02,6.17,2.38-3.9,1.01-7.61,7.9-6.48-1.02,2.55-3.83,12.14-6.39,12.8-8.21,2.13-4.1-3.3-7.73-6.33-.38,3.76-3.22,9.59-7.49,5.03-.41-.74-.16-1.39.83-1.44Z"/>
  <path class="cls-2" d="M336.53,161.14c3.1,4.34.53,7.31-4.99,7.92l4.16,3.59c1.17.11,1.09,1.04,0,1.44-5.55,1.02-7.23-2.29-11.22-4.32-2.08,3.65-1.48,5.11-7.07,4.32-.58-.46,4.54-12.39,4.99-12.95,3.57-.58,7.27-.66,11.1-.25.71-1.75,1.96-1.24,3.04.25Z"/>
  <path class="cls-2" d="M217.62,161.86c.34,1.59,2.17,11.8,1.66,12.23-3.64,1.38-5.01-2.09-5.41-2.16-1.97-.38-.95,1.59-2.58,2.07-1.88.55-7.75.09-10.3.1-3.61.19.17-4.98,1.9-6.53,1.09-.98,2.47-1.62,3.92-2.1,1.38-1.6,1.42-1.98,3.33-3.6,1.31-1.16,3.53-2.93,5.5-2.11l1.98,2.11Z"/>
  <path class="cls-2" d="M150.27,161.86c1.12-1.99,7.58-2.07,7.48.72.02.24-.04.48,0,.72,2.39,3.65,2.95,7.25,1.66,10.79-2.85-.35-5.3,1.26-5.41-2.17-4.17,3.22-8.52,2.02-13.71,2.16-1.03-.78,9.01-10.79,9.97-12.23Z"/>
  <path class="cls-2" d="M307.43,169.06c-.07.15-1.29.13-.83,1.44h9.97c1.04.81-3,3.6-3.74,3.6h-12.89l4.99-12.95h15.8c-1.39,5.41-10.52,2.45-11.5,2.97-1.02.54-.91,2.64-.97,2.79,1.87,1.33,1.57,2.02-.83,2.16Z"/>
  <path class="cls-2" d="M251.72,161.14c5.24.19,10.56-.14,15.8,0-.53.87-1.61,2.36-2.49,2.87l-8.32.72c-2.01.88-.77,1.35-.83,1.44,1.78,1.2.25,2.8-1.66,2.88.72.24.71.48,0,.72-.02.07-1.04.13-.83.71,3.32-.03,6.66.08,9.98,0,1.14.09,1.13,1.13,0,1.44-1.68,1.03-2.22,1.94-4.53,2.2-3.02.34-10.36.58-12.1-1.48-1.41-2.19.31-5.9,1.87-8.41.63-1.02,2.32-3.06,3.12-3.1Z"/>
  <path class="cls-2" d="M381.44,161.14c4.32-.6,9.18-.54,13.73-.4,2.6.76,2.05,2.42-.42,2.56-5.38.94-7.08,2.01-7.48,7.19l4.15,1.07c-.62.42-2.63,2.53-2.9,2.53h-12.89c-.52-4.07,4.8-2.85,6.24-4.31.19-.19,2.08-4.44,2.05-4.69-.17-1.67-3.48-.37-4.49-.38-.66,0-1.15-.68-1.31-.69v-.72c.08-1.1,1.1-2.01,2.49-1.44.27-.24.54-.5.83-.72Z"/>
  <path class="cls-2" d="M236.75,161.14c1.55-.65,13.27-.64,13.54-.1,1.94,3.97-7.04,4.72-10.17,4.87-7.18,1.58,4.69,3.99,5.73,4.17l.05,1.13c-2.24,5.33-13.89,2.18-14.22-2.51-.16-2.24,2.62-7.01,5.07-7.56Z"/>
  <path class="cls-2" d="M303.27,161.14c-.95,3.09-5.06,2.97-6.46,3.76-2.46,1.4-2.06,13.23-9.32,8.11l4.12-7.92c-1.07-1.42-3.38-.66-4.96-.36-.69-.86,2.65-3.6,2.9-3.6h13.72Z"/>
  <path class="cls-2" d="M166.9,174.09c-.56,1.47-5.73.16-6.27-.31-2.27-1.96,3.37-11.47,5.22-12.88,1.76-1.34,8.22-.68,5.2,2.4-.79,1.64-1.04,2.89-1.66,4.32.81,1.99,1.49,3.2,3.67,1.52,1.67-.16,3.38.44,2.98,2.08-2.66,3.22-4.82,2.96-9.15,2.88Z"/>
  <path class="cls-2" d="M426.15,139c3.48,5.65-10.57,9.18-7.94,2.52.99-2.52,5.24-3.76,7.94-2.52Z"/>
  <path class="cls-2" d="M308.26,166.9l7.48-.36c-2.17,2.76-4.69,2.79-8.31,2.52.3-.71.51-1.43.83-2.16Z"/>
  <path class="cls-2" d="M337.37,171.93c1.2-.81,1.36-2.05,4.15-1.44.48,2.62-1,3.8-3.32,5.03-1.75.44-2.44-2.64-.83-3.6Z"/>
  <path class="cls-2" d="M338.2,175.53c-.26.14-.09,1.11-1.66.72.41-.88-.8-1.86-.84-2.16-.05-.34-.09-1.29,0-1.44s1.24-.44,1.66-.72c.05,1.15-.52,2.98.83,3.6Z"/>
  <path class="cls-2" d="M265.02,171.21c-.12.59.01,1.23-.83,1.44-.24-.26-.76-.56-.83-.72-.15-.32.1-1,0-1.44.29,0,.24-1.69,1.66.72Z"/>
  <path class="cls-3" d="M274.17,7.91v26.26c0,.13,1.93,1.8,2.08,1.8h26.19v8.63h-26.19c-.15,0-2.08,1.67-2.08,1.8v60.79h-8.32v-61.87c-.82.23-1.8-.72-2.08-.72h-26.19v-8.63h26.19c.15,0,2.08-1.67,2.08-1.8V7.91h8.32Z"/>
  <path class="cls-3" d="M109.52,89.2c-.04-1.17-.45-4.53.49-5.12,1.59-.99,16.2-4.88,16.94-2.38,1,3.41-10.08,3.83-12.75,5.43-1.9,1.14-2.61,3.4-3.85,4.95-1.71.81-1.54-1.66-.83-2.88Z"/>
  <path class="cls-3" d="M125.32,92.09c3.7,3.21-14.51,7.53-16.62,7.91.23-1.11-.46-3.46.1-4.22.46-.62,14.33-3.64,16.52-3.69Z"/>
  <path class="cls-2" d="M110.35,92.08c-.42.53-.67,1.44-1.65,1.44.14-1.36-.66-3.52.82-4.32.03.95-.42,2.38.83,2.88Z"/>
  <path class="cls-3" d="M424.56,89.83c-2.27,1.26-9.95-2.63-12.84-2.75s-5.02,2.13-7.83,1.76c1.63-1.43,4.57-5.95,6.88-5.96.97,0,13.24,3.35,13.92,3.8,1.11.74.48,2.8-.13,3.14Z"/>
  <path class="cls-3" d="M177.71,70.5c.35.31.09,2.56-.83,3.24-1.84,1.35-8.35,1.07-11.01,1.98-2.5.86-4.33,5.45-6.46,4.12-.34-.21,1.53-6.79,1.81-7.06.67-.65,15.79-2.89,16.49-2.28Z"/>
  <path class="cls-3" d="M233.42,69.06c1.14.91,1.09,1.95,0,2.88-2.08,3.04-3.76,5.71-7.74,7.34-13.95,5.72-21.99-5.75-10.15-12.38,2.1-1.17,10.73-2.43,13.11-2.03,2.88.48,3.53,2.4,4.78,4.2Z"/>
  <path class="cls-2" d="M233.42,71.94v-2.88c.15.22,1.5.51,1.65,1.11.31,1.28-1.41,1.43-1.65,1.77Z"/>
  <path class="cls-3" d="M169.39,126.61c.07.02.19.86.82,1.08-.96,1.11-1.7,1.57-3.31,1.8-2.18-.6-4.46-.52-6.65,0-1.92.81-2.71,2.92-4.99,2.87,1.2-1.18,1.86-5.34,3.33-5.75,3.5-.71,7.29-.73,10.81,0Z"/>
  <path class="cls-3" d="M206.81,138.84h-10.81c-.89-.68,7.64-9.69,8.73-10.78l2.08,10.78Z"/>
  <path class="cls-3" d="M332.37,164.02c.06,3.08-4.19,2.05-6.64,2.15-.06-3.08,4.19-2.05,6.64-2.15Z"/>
  <polygon class="cls-3" points="214.29 170.49 208.48 170.49 213.05 165.46 214.29 170.49"/>
  <path class="cls-3" d="M153.59,165.46v5.04s-4.98-.01-4.98-.01c.37-.65,3.86-6.24,4.98-5.02Z"/>
</svg>