<?xml version="1.0" encoding="UTF-8"?>
<svg id="Layer_1" data-name="Layer 1" xmlns="http://www.w3.org/2000/svg" viewBox="0 0 54.19 54.23">
  <defs>
    <style>
      .cls-1 {
        fill: #fff;
      }

      .cls-2 {
        fill: #eeff6b;
      }
    </style>
  </defs>
  <path class="cls-1" d="M35.94,34.43l5.49-9.55c3-5.12,3-11.47,0-16.6C36.84.35,26.68-2.36,18.75,2.24c-2.51,1.45-4.59,3.53-6.04,6.04-3,5.12-3,11.47,0,16.6l5.49,9.51c-9.17,1.13-18.2,4.04-18.2,9.69,0,6.98,14.04,10.16,27.09,10.16s27.09-3.18,27.09-10.16c0-5.64-9.03-8.56-18.24-9.64ZM16.64,10.58c3.16-5.86,10.47-8.05,16.33-4.89,5.86,3.16,8.05,10.47,4.89,16.33-.11.2-.22.4-.34.59l-10.43,18.06-10.43-18.06c-2.17-3.72-2.17-8.31-.02-12.03ZM27.09,49.71c-14.9,0-22.58-3.95-22.58-5.64,0-1.2,4.85-4.4,16.21-5.37l3.05,5.26c1.06,1.83,3.41,2.46,5.25,1.39.58-.33,1.06-.81,1.39-1.39l3.05-5.26c11.36.97,16.21,4.24,16.21,5.37,0,1.69-7.68,5.64-22.58,5.64Z"/>
  <circle class="cls-2" cx="27.09" cy="15.84" r="4.52"/>
</svg>